<svg width="20" height="20" viewBox="0 0 20 20" fill="none" xmlns="http://www.w3.org/2000/svg">
<circle cx="9.92885" cy="9.92934" r="9.92885" fill="#9B9B9B"/>
<path d="M10.7305 13.2958C9.97989 13.2377 9.66449 12.8655 9.07581 12.5082C8.75227 14.2057 8.35688 15.8329 7.18573 16.683C6.82378 14.1174 7.71634 12.1903 8.13086 10.1448C7.42431 8.95542 8.21581 6.56144 9.70608 7.15135C11.5402 7.87666 8.11811 11.5738 10.4155 12.0356C12.8139 12.5177 13.793 7.874 12.3055 6.36356C10.1565 4.18285 6.05015 6.314 6.55511 9.43577C6.67811 10.199 7.46679 10.4306 6.87015 11.4837C5.49475 11.1791 5.08449 10.0944 5.13723 8.64816C5.22236 6.28091 7.26431 4.62338 9.31245 4.394C11.9027 4.10409 14.3339 5.34515 14.6694 7.78161C15.047 10.5315 13.5001 13.5096 10.7305 13.2958Z" fill="white"/>
</svg>
