<svg width="20" height="20" viewBox="0 0 20 20" fill="none" xmlns="http://www.w3.org/2000/svg">
<circle cx="9.92885" cy="9.92885" r="9.92885" fill="#9B9B9B"/>
<path fill-rule="evenodd" clip-rule="evenodd" d="M9.55396 14.2834H10.3333C10.3333 14.2834 10.5687 14.2576 10.6888 14.128C10.7994 14.0091 10.7959 13.7857 10.7959 13.7857C10.7959 13.7857 10.7807 12.7401 11.266 12.5861C11.7444 12.4344 12.3587 13.5967 13.0099 14.0436C13.5023 14.3818 13.8764 14.3077 13.8764 14.3077L15.6175 14.2834C15.6175 14.2834 16.5283 14.2273 16.0964 13.5112C16.061 13.4526 15.8449 12.9815 14.8019 12.0133C13.7102 11.0001 13.8564 11.164 15.1715 9.41121C15.9724 8.34378 16.2925 7.69209 16.1925 7.41298C16.0971 7.14714 15.5081 7.2174 15.5081 7.2174L13.5478 7.22962C13.5478 7.22962 13.4025 7.20979 13.2947 7.27422C13.1894 7.3374 13.1216 7.48466 13.1216 7.48466C13.1216 7.48466 12.8113 8.31068 12.3975 9.01316C11.5246 10.4955 11.1756 10.5737 11.0329 10.4817C10.701 10.2671 10.7839 9.61988 10.7839 9.16006C10.7839 7.7236 11.0017 7.12466 10.3596 6.96962C10.1465 6.91811 9.98971 6.88413 9.44476 6.87864C8.74529 6.87139 8.15325 6.88077 7.81803 7.04502C7.59502 7.15422 7.42299 7.39758 7.52777 7.41156C7.65732 7.42891 7.95077 7.49068 8.10635 7.70254C8.30723 7.97581 8.30015 8.58962 8.30015 8.58962C8.30015 8.58962 8.41555 10.2806 8.0306 10.4907C7.76635 10.6347 7.40387 10.3406 6.62564 8.99581C6.22688 8.30696 5.92582 7.54555 5.92582 7.54555C5.92582 7.54555 5.86776 7.40325 5.76423 7.32714C5.63856 7.23493 5.46299 7.20555 5.46299 7.20555L3.60015 7.21776C3.60015 7.21776 3.32051 7.22555 3.21785 7.34714C3.12653 7.45528 3.2106 7.679 3.2106 7.679C3.2106 7.679 4.669 11.091 6.32033 12.8105C7.83449 14.387 9.55396 14.2834 9.55396 14.2834Z" fill="white"/>
</svg>
